<mxfile host="app.diagrams.net" modified="2021-01-25T05:54:34.120Z" agent="5.0 (Windows NT 10.0; Win64; x64) AppleWebKit/537.36 (KHTML, like Gecko) Chrome/87.0.4280.66 Safari/537.36" etag="U--17rTmEvM8jErNTruG" version="14.2.7" type="github">
  <diagram id="R2lEEEUBdFMjLlhIrx00" name="Page-1">
    <mxGraphModel dx="1020" dy="1105" grid="1" gridSize="10" guides="1" tooltips="1" connect="1" arrows="1" fold="1" page="1" pageScale="1" pageWidth="850" pageHeight="1100" math="0" shadow="0" extFonts="Permanent Marker^https://fonts.googleapis.com/css?family=Permanent+Marker">
      <root>
        <mxCell id="0" />
        <mxCell id="1" parent="0" />
        <mxCell id="rW8Auu4vkXOJKk0zaXey-1" value="For each vaccine, the name of the vaccine, a brief description of the vaccine and the cost of the vaccine are recorded. The name of each vaccine is unique. Vaccines must have a safety classification. Each safety classification has a unique code, a description and a list of possible side effects. Several vaccines can have the same safety classification. BC health does not record the information of any vaccines with safety classification “MX3”." style="text;whiteSpace=wrap;html=1;" vertex="1" parent="1">
          <mxGeometry x="10" y="10" width="550" height="60" as="geometry" />
        </mxCell>
        <mxCell id="rW8Auu4vkXOJKk0zaXey-3" value="&lt;span style=&quot;text-align: left&quot;&gt;&lt;font style=&quot;font-size: 20px&quot;&gt;PATIENT&lt;/font&gt;&lt;/span&gt;" style="rounded=0;whiteSpace=wrap;html=1;" vertex="1" parent="1">
          <mxGeometry x="220" y="300" width="120" height="60" as="geometry" />
        </mxCell>
        <mxCell id="rW8Auu4vkXOJKk0zaXey-4" value="&lt;u&gt;Medicare Number&lt;/u&gt;" style="ellipse;whiteSpace=wrap;html=1;" vertex="1" parent="1">
          <mxGeometry y="220" width="120" height="40" as="geometry" />
        </mxCell>
        <mxCell id="rW8Auu4vkXOJKk0zaXey-5" value="" style="endArrow=none;html=1;entryX=1;entryY=0.5;entryDx=0;entryDy=0;exitX=0;exitY=0.25;exitDx=0;exitDy=0;" edge="1" parent="1" source="rW8Auu4vkXOJKk0zaXey-3" target="rW8Auu4vkXOJKk0zaXey-4">
          <mxGeometry width="50" height="50" relative="1" as="geometry">
            <mxPoint x="160" y="250" as="sourcePoint" />
            <mxPoint x="100" y="250" as="targetPoint" />
          </mxGeometry>
        </mxCell>
        <mxCell id="rW8Auu4vkXOJKk0zaXey-6" value="Last Name" style="ellipse;whiteSpace=wrap;html=1;" vertex="1" parent="1">
          <mxGeometry x="10" y="280" width="120" height="40" as="geometry" />
        </mxCell>
        <mxCell id="rW8Auu4vkXOJKk0zaXey-7" value="" style="endArrow=none;html=1;entryX=1;entryY=0.5;entryDx=0;entryDy=0;exitX=0;exitY=0.5;exitDx=0;exitDy=0;" edge="1" parent="1" target="rW8Auu4vkXOJKk0zaXey-6" source="rW8Auu4vkXOJKk0zaXey-3">
          <mxGeometry width="50" height="50" relative="1" as="geometry">
            <mxPoint x="160" y="310" as="sourcePoint" />
            <mxPoint x="150" y="310" as="targetPoint" />
          </mxGeometry>
        </mxCell>
        <mxCell id="rW8Auu4vkXOJKk0zaXey-8" value="First Name" style="ellipse;whiteSpace=wrap;html=1;" vertex="1" parent="1">
          <mxGeometry x="10" y="330" width="120" height="40" as="geometry" />
        </mxCell>
        <mxCell id="rW8Auu4vkXOJKk0zaXey-9" value="" style="endArrow=none;html=1;entryX=1;entryY=0.5;entryDx=0;entryDy=0;exitX=0;exitY=0.75;exitDx=0;exitDy=0;" edge="1" parent="1" target="rW8Auu4vkXOJKk0zaXey-8" source="rW8Auu4vkXOJKk0zaXey-3">
          <mxGeometry width="50" height="50" relative="1" as="geometry">
            <mxPoint x="140" y="410" as="sourcePoint" />
            <mxPoint x="152.42640687119274" y="365.85786437626894" as="targetPoint" />
          </mxGeometry>
        </mxCell>
        <mxCell id="rW8Auu4vkXOJKk0zaXey-10" value="Address" style="ellipse;whiteSpace=wrap;html=1;" vertex="1" parent="1">
          <mxGeometry x="160" y="180" width="120" height="40" as="geometry" />
        </mxCell>
        <mxCell id="rW8Auu4vkXOJKk0zaXey-11" value="" style="endArrow=none;html=1;entryX=0.5;entryY=1;entryDx=0;entryDy=0;exitX=0.5;exitY=0;exitDx=0;exitDy=0;" edge="1" parent="1" target="rW8Auu4vkXOJKk0zaXey-10" source="rW8Auu4vkXOJKk0zaXey-3">
          <mxGeometry width="50" height="50" relative="1" as="geometry">
            <mxPoint x="210" y="190" as="sourcePoint" />
            <mxPoint x="190" y="170" as="targetPoint" />
          </mxGeometry>
        </mxCell>
        <mxCell id="rW8Auu4vkXOJKk0zaXey-12" value="unit number" style="ellipse;whiteSpace=wrap;html=1;" vertex="1" parent="1">
          <mxGeometry y="150" width="120" height="40" as="geometry" />
        </mxCell>
        <mxCell id="rW8Auu4vkXOJKk0zaXey-13" value="" style="endArrow=none;html=1;exitX=0;exitY=0.5;exitDx=0;exitDy=0;" edge="1" parent="1" target="rW8Auu4vkXOJKk0zaXey-12" source="rW8Auu4vkXOJKk0zaXey-10">
          <mxGeometry width="50" height="50" relative="1" as="geometry">
            <mxPoint x="130" y="120" as="sourcePoint" />
            <mxPoint x="200" y="60" as="targetPoint" />
          </mxGeometry>
        </mxCell>
        <mxCell id="rW8Auu4vkXOJKk0zaXey-16" value="house number" style="ellipse;whiteSpace=wrap;html=1;" vertex="1" parent="1">
          <mxGeometry x="40" y="100" width="120" height="40" as="geometry" />
        </mxCell>
        <mxCell id="rW8Auu4vkXOJKk0zaXey-17" value="" style="endArrow=none;html=1;entryX=0.5;entryY=1;entryDx=0;entryDy=0;exitX=0;exitY=0;exitDx=0;exitDy=0;" edge="1" parent="1" target="rW8Auu4vkXOJKk0zaXey-16" source="rW8Auu4vkXOJKk0zaXey-10">
          <mxGeometry width="50" height="50" relative="1" as="geometry">
            <mxPoint x="270" y="120" as="sourcePoint" />
            <mxPoint x="340" y="60" as="targetPoint" />
          </mxGeometry>
        </mxCell>
        <mxCell id="rW8Auu4vkXOJKk0zaXey-18" value="street name" style="ellipse;whiteSpace=wrap;html=1;" vertex="1" parent="1">
          <mxGeometry x="170" y="100" width="120" height="40" as="geometry" />
        </mxCell>
        <mxCell id="rW8Auu4vkXOJKk0zaXey-19" value="" style="endArrow=none;html=1;entryX=0.5;entryY=1;entryDx=0;entryDy=0;exitX=0.5;exitY=0;exitDx=0;exitDy=0;" edge="1" parent="1" target="rW8Auu4vkXOJKk0zaXey-18" source="rW8Auu4vkXOJKk0zaXey-10">
          <mxGeometry width="50" height="50" relative="1" as="geometry">
            <mxPoint x="400" y="120" as="sourcePoint" />
            <mxPoint x="470" y="60" as="targetPoint" />
          </mxGeometry>
        </mxCell>
        <mxCell id="rW8Auu4vkXOJKk0zaXey-20" value="suburb" style="ellipse;whiteSpace=wrap;html=1;" vertex="1" parent="1">
          <mxGeometry x="290" y="120" width="120" height="40" as="geometry" />
        </mxCell>
        <mxCell id="rW8Auu4vkXOJKk0zaXey-21" value="" style="endArrow=none;html=1;entryX=0;entryY=1;entryDx=0;entryDy=0;exitX=1;exitY=0;exitDx=0;exitDy=0;" edge="1" parent="1" target="rW8Auu4vkXOJKk0zaXey-20" source="rW8Auu4vkXOJKk0zaXey-10">
          <mxGeometry width="50" height="50" relative="1" as="geometry">
            <mxPoint x="550" y="120" as="sourcePoint" />
            <mxPoint x="620" y="60" as="targetPoint" />
          </mxGeometry>
        </mxCell>
        <mxCell id="rW8Auu4vkXOJKk0zaXey-22" value="postcode" style="ellipse;whiteSpace=wrap;html=1;" vertex="1" parent="1">
          <mxGeometry x="310" y="170" width="120" height="40" as="geometry" />
        </mxCell>
        <mxCell id="rW8Auu4vkXOJKk0zaXey-23" value="" style="endArrow=none;html=1;entryX=0;entryY=0.5;entryDx=0;entryDy=0;exitX=1;exitY=0.5;exitDx=0;exitDy=0;" edge="1" parent="1" target="rW8Auu4vkXOJKk0zaXey-22" source="rW8Auu4vkXOJKk0zaXey-10">
          <mxGeometry width="50" height="50" relative="1" as="geometry">
            <mxPoint x="700" y="120" as="sourcePoint" />
            <mxPoint x="770" y="60" as="targetPoint" />
          </mxGeometry>
        </mxCell>
        <mxCell id="rW8Auu4vkXOJKk0zaXey-24" value="Allergies&amp;nbsp;" style="ellipse;shape=doubleEllipse;margin=3;whiteSpace=wrap;html=1;align=center;" vertex="1" parent="1">
          <mxGeometry x="230" y="420" width="100" height="40" as="geometry" />
        </mxCell>
        <mxCell id="rW8Auu4vkXOJKk0zaXey-27" value="" style="endArrow=none;html=1;entryX=0.5;entryY=0;entryDx=0;entryDy=0;exitX=0.5;exitY=1;exitDx=0;exitDy=0;" edge="1" parent="1" source="rW8Auu4vkXOJKk0zaXey-3" target="rW8Auu4vkXOJKk0zaXey-24">
          <mxGeometry width="50" height="50" relative="1" as="geometry">
            <mxPoint x="230" y="355" as="sourcePoint" />
            <mxPoint x="140" y="360" as="targetPoint" />
          </mxGeometry>
        </mxCell>
        <mxCell id="rW8Auu4vkXOJKk0zaXey-29" value="&lt;span style=&quot;text-align: left&quot;&gt;&lt;font style=&quot;font-size: 20px&quot;&gt;VACCINE&lt;/font&gt;&lt;/span&gt;" style="rounded=0;whiteSpace=wrap;html=1;" vertex="1" parent="1">
          <mxGeometry x="630" y="300" width="120" height="60" as="geometry" />
        </mxCell>
        <mxCell id="rW8Auu4vkXOJKk0zaXey-30" value="&lt;u&gt;Name&lt;/u&gt;" style="ellipse;whiteSpace=wrap;html=1;" vertex="1" parent="1">
          <mxGeometry x="780" y="250" width="120" height="40" as="geometry" />
        </mxCell>
        <mxCell id="rW8Auu4vkXOJKk0zaXey-31" value="" style="endArrow=none;html=1;entryX=0;entryY=1;entryDx=0;entryDy=0;exitX=1;exitY=0;exitDx=0;exitDy=0;" edge="1" parent="1" target="rW8Auu4vkXOJKk0zaXey-30" source="rW8Auu4vkXOJKk0zaXey-29">
          <mxGeometry width="50" height="50" relative="1" as="geometry">
            <mxPoint x="620" y="345.86" as="sourcePoint" />
            <mxPoint x="657.5735931288073" y="300.00213562373085" as="targetPoint" />
          </mxGeometry>
        </mxCell>
      </root>
    </mxGraphModel>
  </diagram>
</mxfile>
